<?xml version="1.0" encoding="UTF-8" standalone="no"?>
<!-- Created with Inkscape (http://www.inkscape.org/) -->

<svg
   version="1.1"
   id="svg2"
   width="655.89331"
   height="118.95731"
   viewBox="0 0 655.89331 118.95731"
   xmlns="http://www.w3.org/2000/svg"
   xmlns:svg="http://www.w3.org/2000/svg">
  <defs
     id="defs6">
    <linearGradient
       x1="0"
       y1="0"
       x2="1"
       y2="0"
       gradientUnits="userSpaceOnUse"
       gradientTransform="matrix(0,85.439362,85.439362,0,85.072853,255.52351)"
       spreadMethod="pad"
       id="linearGradient28">
      <stop
         style="stop-opacity:1;stop-color:#748180"
         offset="0"
         id="stop24" />
      <stop
         style="stop-opacity:1;stop-color:#169393"
         offset="1"
         id="stop26" />
    </linearGradient>
    <linearGradient
       x1="0"
       y1="0"
       x2="1"
       y2="0"
       gradientUnits="userSpaceOnUse"
       gradientTransform="matrix(0,56.659359,56.659359,0,143.01213,255.52351)"
       spreadMethod="pad"
       id="linearGradient48">
      <stop
         style="stop-opacity:1;stop-color:#748180"
         offset="0"
         id="stop44" />
      <stop
         style="stop-opacity:1;stop-color:#169393"
         offset="1"
         id="stop46" />
    </linearGradient>
    <linearGradient
       x1="0"
       y1="0"
       x2="1"
       y2="0"
       gradientUnits="userSpaceOnUse"
       gradientTransform="matrix(0,85.439362,85.439362,0,270.53311,255.52351)"
       spreadMethod="pad"
       id="linearGradient68">
      <stop
         style="stop-opacity:1;stop-color:#748180"
         offset="0"
         id="stop64" />
      <stop
         style="stop-opacity:1;stop-color:#169393"
         offset="1"
         id="stop66" />
    </linearGradient>
    <linearGradient
       x1="0"
       y1="0"
       x2="1"
       y2="0"
       gradientUnits="userSpaceOnUse"
       gradientTransform="matrix(0,58.401474,58.401474,0,330.2142,253.84059)"
       spreadMethod="pad"
       id="linearGradient88">
      <stop
         style="stop-opacity:1;stop-color:#748180"
         offset="0"
         id="stop84" />
      <stop
         style="stop-opacity:1;stop-color:#169393"
         offset="1"
         id="stop86" />
    </linearGradient>
    <linearGradient
       x1="0"
       y1="0"
       x2="1"
       y2="0"
       gradientUnits="userSpaceOnUse"
       gradientTransform="matrix(0,85.439362,85.439362,0,373.91327,255.52351)"
       spreadMethod="pad"
       id="linearGradient108">
      <stop
         style="stop-opacity:1;stop-color:#748180"
         offset="0"
         id="stop104" />
      <stop
         style="stop-opacity:1;stop-color:#169393"
         offset="1"
         id="stop106" />
    </linearGradient>
    <linearGradient
       x1="0"
       y1="0"
       x2="1"
       y2="0"
       gradientUnits="userSpaceOnUse"
       gradientTransform="matrix(0,56.659359,56.659359,0,408.11948,255.52351)"
       spreadMethod="pad"
       id="linearGradient128">
      <stop
         style="stop-opacity:1;stop-color:#748180"
         offset="0"
         id="stop124" />
      <stop
         style="stop-opacity:1;stop-color:#169393"
         offset="1"
         id="stop126" />
    </linearGradient>
    <linearGradient
       x1="0"
       y1="0"
       x2="1"
       y2="0"
       gradientUnits="userSpaceOnUse"
       gradientTransform="matrix(0,85.439362,85.439362,0,458.93927,255.52351)"
       spreadMethod="pad"
       id="linearGradient148">
      <stop
         style="stop-opacity:1;stop-color:#748180"
         offset="0"
         id="stop144" />
      <stop
         style="stop-opacity:1;stop-color:#169393"
         offset="1"
         id="stop146" />
    </linearGradient>
    <linearGradient
       x1="0"
       y1="0"
       x2="1"
       y2="0"
       gradientUnits="userSpaceOnUse"
       gradientTransform="matrix(0,57.801044,57.801044,0,520.96503,254.38184)"
       spreadMethod="pad"
       id="linearGradient168">
      <stop
         style="stop-opacity:1;stop-color:#748180"
         offset="0"
         id="stop164" />
      <stop
         style="stop-opacity:1;stop-color:#169393"
         offset="1"
         id="stop166" />
    </linearGradient>
    <linearGradient
       x1="0"
       y1="0"
       x2="1"
       y2="0"
       gradientUnits="userSpaceOnUse"
       gradientTransform="matrix(64.215286,0,0,-64.215286,169.91855,283.85321)"
       spreadMethod="pad"
       id="linearGradient190">
      <stop
         style="stop-opacity:1;stop-color:#12ced1"
         offset="0"
         id="stop184" />
      <stop
         style="stop-opacity:1;stop-color:#12ced1"
         offset="0.42907384"
         id="stop186" />
      <stop
         style="stop-opacity:1;stop-color:#055060"
         offset="1"
         id="stop188" />
    </linearGradient>
    <linearGradient
       x1="0"
       y1="0"
       x2="1"
       y2="0"
       gradientUnits="userSpaceOnUse"
       gradientTransform="matrix(8.9477882,0,0,-8.9477882,402.67438,324.01285)"
       spreadMethod="pad"
       id="linearGradient212">
      <stop
         style="stop-opacity:1;stop-color:#12ced1"
         offset="0"
         id="stop206" />
      <stop
         style="stop-opacity:1;stop-color:#12ced1"
         offset="0.42907384"
         id="stop208" />
      <stop
         style="stop-opacity:1;stop-color:#055060"
         offset="1"
         id="stop210" />
    </linearGradient>
    <linearGradient
       x1="0"
       y1="0"
       x2="1"
       y2="0"
       gradientUnits="userSpaceOnUse"
       gradientTransform="matrix(0,-15.235191,-15.235191,0,178.10068,330.77975)"
       spreadMethod="pad"
       id="linearGradient232">
      <stop
         style="stop-opacity:1;stop-color:#9c9c9c"
         offset="0"
         id="stop228" />
      <stop
         style="stop-opacity:1;stop-color:#5c5c5c"
         offset="1"
         id="stop230" />
    </linearGradient>
    <clipPath
       clipPathUnits="userSpaceOnUse"
       id="clipPath242">
      <path
         d="M 0,600 H 600 V 0 H 0 Z"
         id="path240" />
    </clipPath>
    <linearGradient
       x1="0"
       y1="0"
       x2="1"
       y2="0"
       gradientUnits="userSpaceOnUse"
       gradientTransform="matrix(0,-15.898011,-15.898011,0,306.93237,329.33664)"
       spreadMethod="pad"
       id="linearGradient264">
      <stop
         style="stop-opacity:1;stop-color:#9c9c9c"
         offset="0"
         id="stop260" />
      <stop
         style="stop-opacity:1;stop-color:#5c5c5c"
         offset="1"
         id="stop262" />
    </linearGradient>
    <clipPath
       clipPathUnits="userSpaceOnUse"
       id="clipPath274">
      <path
         d="M 0,600 H 600 V 0 H 0 Z"
         id="path272" />
    </clipPath>
    <linearGradient
       x1="0"
       y1="0"
       x2="1"
       y2="0"
       gradientUnits="userSpaceOnUse"
       gradientTransform="matrix(0,-17.396044,-17.396044,0,406.14661,334.18857)"
       spreadMethod="pad"
       id="linearGradient296">
      <stop
         style="stop-opacity:1;stop-color:#9c9c9c"
         offset="0"
         id="stop292" />
      <stop
         style="stop-opacity:1;stop-color:#5c5c5c"
         offset="1"
         id="stop294" />
    </linearGradient>
    <clipPath
       clipPathUnits="userSpaceOnUse"
       id="clipPath306">
      <path
         d="M 0,600 H 600 V 0 H 0 Z"
         id="path304" />
    </clipPath>
    <linearGradient
       x1="0"
       y1="0"
       x2="1"
       y2="0"
       gradientUnits="userSpaceOnUse"
       gradientTransform="matrix(0,-15.199493,-15.199493,0,493.42239,331.43762)"
       spreadMethod="pad"
       id="linearGradient328">
      <stop
         style="stop-opacity:1;stop-color:#9c9c9c"
         offset="0"
         id="stop324" />
      <stop
         style="stop-opacity:1;stop-color:#5c5c5c"
         offset="1"
         id="stop326" />
    </linearGradient>
    <clipPath
       clipPathUnits="userSpaceOnUse"
       id="clipPath338">
      <path
         d="M 0,600 H 600 V 0 H 0 Z"
         id="path336" />
    </clipPath>
  </defs>
  <g
     id="g10"
     transform="matrix(1.3333333,0,0,-1.3333333,-72.053329,454.61731)">
    <g
       id="g12">
      <g
         id="g14">
        <g
           id="g20">
          <g
             id="g22">
            <path
               d="m 54.04,340.963 v -2.332 h 3.064 c 3.084,0 5.407,-0.924 6.97,-2.772 v 0 c 1.082,-1.303 1.622,-4.641 1.622,-10.019 v 0 -55.195 c 0,-4.872 -0.401,-7.96 -1.201,-9.262 v 0 c -1.483,-2.353 -3.947,-3.529 -7.391,-3.529 v 0 H 54.04 v -2.331 h 34.908 v 2.331 h -3.124 c -3.084,0 -5.387,0.924 -6.91,2.772 v 0 c -1.122,1.303 -1.682,4.643 -1.682,10.019 v 0 24.889 c 2.603,-0.588 5.047,-1.029 7.33,-1.322 v 0 c 2.284,-0.295 4.406,-0.441 6.369,-0.441 v 0 c 8.01,0 14.21,2.182 18.596,6.552 v 0 c 4.386,4.367 6.578,10.038 6.578,17.012 v 0 c 0,5.124 -1.441,9.556 -4.325,13.294 v 0 c -2.884,3.739 -6.429,6.396 -10.635,7.972 v 0 c -4.206,1.575 -9.954,2.362 -17.243,2.362 v 0 z m 28.84,-42.782 c -1.643,0.21 -3.526,0.525 -5.648,0.945 v 0 35.536 c 3.205,0.798 5.828,1.197 7.871,1.197 v 0 c 3.364,0 6.368,-0.786 9.013,-2.363 v 0 c 2.643,-1.575 4.686,-3.948 6.128,-7.119 v 0 c 1.442,-3.173 2.163,-6.607 2.163,-10.301 v 0 c 0,-5.378 -1.512,-9.757 -4.537,-13.139 v 0 c -3.024,-3.38 -6.619,-5.072 -10.785,-5.072 v 0 c -1.162,0 -2.563,0.105 -4.205,0.316"
               style="fill:url(#linearGradient28);stroke:none"
               id="path30" />
          </g>
        </g>
      </g>
    </g>
    <g
       id="g32">
      <g
         id="g34">
        <g
           id="g40">
          <g
             id="g42">
            <path
               d="m 141.69,299.805 v 12.378 h -2.523 l -16.643,-6.729 0.6,-2.164 c 1.563,0.601 2.964,0.901 4.206,0.901 v 0 c 1.041,0 1.913,-0.28 2.614,-0.841 v 0 c 0.7,-0.56 1.181,-1.452 1.442,-2.674 v 0 c 0.261,-1.222 0.391,-5.037 0.391,-11.445 v 0 -21.33 c 0,-3.206 -0.101,-5.148 -0.301,-5.828 v 0 c -0.401,-1.403 -1.102,-2.424 -2.103,-3.066 v 0 c -1.362,-0.881 -3.445,-1.321 -6.249,-1.321 v 0 -2.163 h 28.179 v 2.163 c -2.484,0 -4.385,0.361 -5.707,1.083 v 0 c -1.322,0.72 -2.244,1.621 -2.764,2.704 v 0 c -0.762,1.561 -1.142,3.863 -1.142,6.909 v 0 26.376 c 1.923,3.766 3.786,6.469 5.589,8.112 v 0 c 0.84,0.801 1.621,1.201 2.342,1.201 v 0 c 0.841,0 2.133,-0.691 3.876,-2.072 v 0 c 1.742,-1.382 3.314,-2.074 4.716,-2.074 v 0 c 1.442,0 2.684,0.542 3.726,1.623 v 0 c 1.04,1.081 1.561,2.403 1.561,3.965 v 0 c 0,1.763 -0.721,3.314 -2.162,4.657 v 0 c -1.442,1.341 -3.266,2.013 -5.468,2.013 v 0 c -4.847,0 -9.574,-4.127 -14.18,-12.378"
               style="fill:url(#linearGradient48);stroke:none"
               id="path50" />
          </g>
        </g>
      </g>
    </g>
    <g
       id="g52">
      <g
         id="g54">
        <g
           id="g60">
          <g
             id="g62">
            <path
               d="m 257.015,340.963 -16.463,-6.731 0.841,-2.101 c 1.882,0.64 3.245,0.961 4.086,0.961 v 0 c 1.041,0 1.872,-0.261 2.494,-0.781 v 0 c 0.62,-0.522 1.08,-1.502 1.381,-2.945 v 0 c 0.301,-1.441 0.451,-5.307 0.451,-11.596 v 0 -49.809 c 0,-3.446 -0.24,-5.729 -0.721,-6.85 v 0 c -0.482,-1.122 -1.122,-1.882 -1.923,-2.284 v 0 c -1.403,-0.76 -3.325,-1.141 -5.768,-1.141 v 0 -2.163 h 27.278 v 2.163 c -2.804,0 -4.777,0.311 -5.919,0.932 v 0 c -1.141,0.621 -1.922,1.391 -2.342,2.313 v 0 c -0.421,0.921 -0.631,3.264 -0.631,7.03 v 0 29.08 c 2.963,3.164 5.507,5.267 7.63,6.309 v 0 c 2.123,1.041 4.166,1.562 6.128,1.562 v 0 c 1.923,0 3.566,-0.471 4.927,-1.411 v 0 c 1.362,-0.943 2.353,-2.354 2.975,-4.237 v 0 c 0.62,-1.882 0.931,-5.828 0.931,-11.836 v 0 -19.467 c 0,-3.124 -0.061,-5.008 -0.18,-5.648 v 0 c -0.401,-1.523 -1.103,-2.674 -2.104,-3.454 v 0 c -1.001,-0.782 -2.784,-1.173 -5.347,-1.173 v 0 h -1.261 v -2.163 h 27.036 v 2.163 c -2.563,0 -4.325,0.28 -5.286,0.842 v 0 c -0.962,0.559 -1.643,1.322 -2.043,2.282 v 0 c -0.562,1.283 -0.842,3.666 -0.842,7.151 v 0 19.467 c 0,6.81 -0.38,11.496 -1.141,14.059 v 0 c -1.082,3.686 -2.745,6.389 -4.987,8.112 v 0 c -2.242,1.722 -4.927,2.584 -8.051,2.584 v 0 c -2.604,0 -5.208,-0.692 -7.81,-2.074 v 0 c -2.605,-1.381 -6.129,-4.516 -10.575,-9.402 v 0 40.256 z"
               style="fill:url(#linearGradient68);stroke:none"
               id="path70" />
          </g>
        </g>
      </g>
    </g>
    <g
       id="g72">
      <g
         id="g74">
        <g
           id="g80">
          <g
             id="g82">
            <path
               d="m 314.172,304.341 c -4.827,-5.267 -7.24,-12.607 -7.24,-22.02 v 0 c 0,-8.693 2.353,-15.612 7.06,-20.759 v 0 c 4.706,-5.148 10.364,-7.722 16.974,-7.722 v 0 c 6.088,0 11.154,2.254 15.2,6.76 v 0 c 4.046,4.507 6.489,9.503 7.33,14.992 v 0 l -1.862,1.2 c -1.802,-4.806 -4.036,-8.201 -6.699,-10.183 v 0 c -2.665,-1.983 -5.799,-2.974 -9.404,-2.974 v 0 c -5.407,0 -10.114,2.323 -14.119,6.97 v 0 c -4.006,4.646 -5.988,11.055 -5.948,19.226 v 0 h 38.032 c 0,6.81 -1.983,12.247 -5.948,16.313 v 0 c -3.966,4.065 -9.033,6.098 -15.201,6.098 v 0 c -7.29,0 -13.348,-2.634 -18.175,-7.901 m 5.889,-0.24 c 2.622,2.584 5.596,3.875 8.921,3.875 v 0 c 2.164,0 4.236,-0.641 6.219,-1.922 v 0 c 1.982,-1.283 3.474,-3.044 4.476,-5.287 v 0 c 0.64,-1.442 1.061,-3.926 1.262,-7.45 v 0 h -25.475 c 0.44,4.605 1.971,8.201 4.597,10.784"
               style="fill:url(#linearGradient88);stroke:none"
               id="path90" />
          </g>
        </g>
      </g>
    </g>
    <g
       id="g92">
      <g
         id="g94">
        <g
           id="g100">
          <g
             id="g102">
            <path
               d="m 376.317,340.963 -16.403,-6.731 1.021,-2.101 c 1.601,0.64 2.923,0.961 3.965,0.961 v 0 c 0.962,0 1.752,-0.261 2.374,-0.781 v 0 c 0.621,-0.522 1.071,-1.493 1.352,-2.914 v 0 c 0.279,-1.423 0.42,-5.239 0.42,-11.447 v 0 -49.989 c 0,-3.405 -0.261,-5.708 -0.781,-6.911 v 0 c -0.52,-1.2 -1.242,-2.062 -2.163,-2.583 v 0 c -0.922,-0.521 -2.643,-0.781 -5.167,-0.781 v 0 -2.163 h 26.978 v 2.163 c -2.845,0 -4.788,0.291 -5.829,0.871 v 0 c -1.041,0.582 -1.812,1.432 -2.313,2.554 v 0 c -0.501,1.121 -0.75,3.404 -0.75,6.85 v 0 73.002 z"
               style="fill:url(#linearGradient108);stroke:none"
               id="path110" />
          </g>
        </g>
      </g>
    </g>
    <g
       id="g112">
      <g
         id="g114">
        <g
           id="g120">
          <g
             id="g122">
            <path
               d="m 410.913,312.183 -16.582,-6.729 0.84,-2.164 c 1.602,0.601 2.965,0.901 4.086,0.901 v 0 c 1.04,0 1.863,-0.25 2.463,-0.751 v 0 c 0.601,-0.5 1.041,-1.392 1.322,-2.673 v 0 c 0.361,-1.763 0.541,-5.628 0.541,-11.596 v 0 -21.21 c 0,-3.405 -0.271,-5.708 -0.811,-6.911 v 0 c -0.541,-1.2 -1.272,-2.062 -2.193,-2.583 v 0 c -0.922,-0.521 -2.725,-0.781 -5.408,-0.781 v 0 -2.163 h 26.737 v 2.163 c -2.603,0 -4.396,0.28 -5.376,0.842 v 0 c -0.983,0.559 -1.724,1.412 -2.224,2.554 v 0 c -0.502,1.141 -0.752,3.433 -0.752,6.879 v 0 44.222 z"
               style="fill:url(#linearGradient128);stroke:none"
               id="path130" />
          </g>
        </g>
      </g>
    </g>
    <g
       id="g132">
      <g
         id="g134">
        <g
           id="g140">
          <g
             id="g142">
            <path
               d="m 444.67,340.963 -16.344,-6.731 1.023,-2.101 c 1.682,0.68 2.943,1.02 3.785,1.02 v 0 c 1.04,0 1.882,-0.27 2.524,-0.812 v 0 c 0.639,-0.54 1.1,-1.521 1.382,-2.942 v 0 c 0.279,-1.423 0.42,-5.318 0.42,-11.687 v 0 -50.11 c 0,-3.244 -0.301,-5.527 -0.901,-6.849 v 0 c -0.442,-0.922 -1.081,-1.602 -1.924,-2.042 v 0 c -1.401,-0.683 -3.504,-1.023 -6.309,-1.023 v 0 -2.163 h 28 v 2.163 c -3.085,0.04 -5.089,0.301 -6.008,0.781 v 0 c -0.922,0.482 -1.634,1.282 -2.133,2.403 v 0 c -0.502,1.122 -0.752,3.465 -0.752,7.031 v 0 18.266 l 16.883,-21.571 c 1.602,-2.043 2.403,-3.526 2.403,-4.446 v 0 c 0,-0.761 -0.27,-1.351 -0.81,-1.773 v 0 c -0.541,-0.42 -1.573,-0.651 -3.094,-0.691 v 0 -2.163 h 26.737 v 2.163 c -2.485,0 -4.226,0.201 -5.228,0.601 v 0 c -1.441,0.56 -3.124,1.782 -5.046,3.665 v 0 c -1.363,1.321 -4.007,4.447 -7.931,9.374 v 0 l -14.12,17.845 14.12,13.037 c 2.602,2.364 4.995,4.005 7.179,4.927 v 0 c 2.184,0.921 4.917,1.422 8.201,1.502 v 0 1.923 h -23.912 v -1.923 c 1.521,-0.08 2.614,-0.41 3.274,-0.991 v 0 c 0.662,-0.581 0.992,-1.272 0.992,-2.073 v 0 c 0,-0.48 -0.16,-0.962 -0.481,-1.441 v 0 c -0.481,-0.721 -2.204,-2.445 -5.167,-5.167 v 0 l -14,-12.739 v 54.737 z"
               style="fill:url(#linearGradient148);stroke:none"
               id="path150" />
          </g>
        </g>
      </g>
    </g>
    <g
       id="g152">
      <g
         id="g154">
        <g
           id="g160">
          <g
             id="g162">
            <path
               d="m 503.361,307.857 c -3.525,-2.884 -5.288,-6.049 -5.288,-9.494 v 0 c 0,-1.802 0.471,-3.224 1.413,-4.265 v 0 c 0.94,-1.043 2.152,-1.563 3.635,-1.563 v 0 c 1.522,0 2.753,0.5 3.695,1.502 v 0 c 0.941,1.001 1.412,2.424 1.412,4.265 v 0 l -0.121,3.486 c 0,1.762 0.761,3.324 2.283,4.686 v 0 c 1.482,1.362 3.486,2.043 6.008,2.043 v 0 c 3.326,0 5.859,-1.02 7.601,-3.063 v 0 c 1.742,-2.043 2.614,-5.809 2.614,-11.296 v 0 -2.163 c -9.454,-3.446 -16.213,-6.369 -20.277,-8.773 v 0 c -4.067,-2.404 -6.922,-4.967 -8.563,-7.691 v 0 c -1.202,-1.963 -1.803,-4.286 -1.803,-6.969 v 0 c 0,-4.246 1.231,-7.672 3.697,-10.275 v 0 c 2.463,-2.604 5.596,-3.906 9.402,-3.906 v 0 c 2.442,0 4.746,0.503 6.909,1.502 v 0 c 1.443,0.681 4.987,3.204 10.635,7.572 v 0 c 0.039,-3.286 0.64,-5.609 1.802,-6.969 v 0 c 1.162,-1.362 2.724,-2.043 4.687,-2.043 v 0 c 4.085,0 8.371,3.003 12.858,9.012 v 0 3.364 c -2.403,-2.404 -4.026,-3.866 -4.866,-4.386 v 0 c -0.481,-0.28 -1.044,-0.421 -1.684,-0.421 v 0 c -0.6,0 -1.131,0.2 -1.591,0.601 v 0 c -0.461,0.4 -0.792,1.192 -0.992,2.373 v 0 c -0.2,1.181 -0.3,4.396 -0.3,9.644 v 0 18.687 c 0,5.326 -0.361,8.851 -1.081,10.574 v 0 c -1.122,2.644 -2.865,4.586 -5.228,5.829 v 0 c -3.124,1.64 -7.13,2.463 -12.017,2.463 v 0 c -6.368,0 -11.316,-1.443 -14.84,-4.326 m 5.287,-43.651 c -1.722,1.902 -2.583,4.295 -2.583,7.179 v 0 c 0,2.283 0.681,4.387 2.042,6.309 v 0 c 1.362,1.923 3.625,3.765 6.789,5.528 v 0 c 1.763,1 5.668,2.704 11.717,5.107 v 0 -20.97 c -4.968,-4.006 -8.974,-6.007 -12.016,-6.007 v 0 c -2.244,0 -4.228,0.95 -5.949,2.854"
               style="fill:url(#linearGradient168);stroke:none"
               id="path170" />
          </g>
        </g>
      </g>
    </g>
    <g
       id="g172">
      <g
         id="g174">
        <g
           id="g180">
          <g
             id="g182">
            <path
               d="m 169.918,283.853 c 0,-17.732 14.376,-32.108 32.109,-32.108 v 0 c 17.731,0 32.107,14.376 32.107,32.108 v 0 c 0,17.732 -14.376,32.108 -32.107,32.108 v 0 c -17.733,0 -32.109,-14.376 -32.109,-32.108"
               style="fill:url(#linearGradient190);stroke:none"
               id="path192" />
          </g>
        </g>
      </g>
    </g>
    <g
       id="g194">
      <g
         id="g196">
        <g
           id="g202">
          <g
             id="g204">
            <path
               d="m 402.674,324.013 c 0,-2.471 2.004,-4.474 4.474,-4.474 v 0 c 2.471,0 4.474,2.003 4.474,4.474 v 0 c 0,2.471 -2.003,4.473 -4.474,4.473 v 0 c -2.47,0 -4.474,-2.002 -4.474,-4.473"
               style="fill:url(#linearGradient212);stroke:none"
               id="path214" />
          </g>
        </g>
      </g>
    </g>
    <g
       id="g216">
      <g
         id="g218">
        <g
           id="g224">
          <g
             id="g226">
            <path
               d="m 180.052,327.27 0.117,-1.02 c -0.366,0.797 -0.862,1.438 -1.489,1.921 v 0 c -0.694,0.537 -1.452,0.798 -2.276,0.785 v 0 c -1.581,-0.026 -2.836,-0.811 -3.764,-2.352 v 0 c -0.131,-0.224 -0.196,-0.432 -0.196,-0.629 v 0 c 0,-0.261 0.114,-0.503 0.343,-0.725 v 0 c 0.229,-0.222 0.474,-0.307 0.736,-0.255 v 0 c 0.705,0.249 1.09,0.373 1.156,0.373 v 0 c 0.301,0.013 0.451,-0.242 0.451,-0.764 v 0 c 0,-0.209 -0.039,-0.352 -0.117,-0.431 v 0 l -1.059,-1.116 1.834,-0.686 3.27,3.344 c 0.331,-0.262 0.637,-0.811 0.915,-1.649 v 0 l -0.137,-5.128 c 0.06,-0.064 0.118,-0.125 0.177,-0.185 v 0 -0.542 l -0.02,0.02 c -0.419,0.549 -1.072,0.856 -1.961,0.922 v 0 c -0.118,0.012 -0.496,0.038 -1.137,0.078 v 0 c -0.51,0.012 -1.013,0.026 -1.51,0.039 v 0 c -0.667,0.052 -1.177,0.17 -1.529,0.353 v 0 c -0.458,0.248 -0.687,0.64 -0.687,1.177 v 0 c 0,0.405 0.072,0.679 0.216,0.823 v 0 l -0.765,0.764 c -0.313,-0.992 -0.471,-1.712 -0.471,-2.156 v 0 c 0,-1.765 1.086,-2.667 3.256,-2.706 v 0 c 1.66,-0.027 2.83,-0.059 3.51,-0.099 v 0 c 0.469,-0.025 0.862,-0.215 1.176,-0.568 v 0 c 0.144,-0.235 0.3,-0.476 0.471,-0.725 v 0 l 0.725,-0.589 v 2.08 c 0,-0.001 0,-0.001 0,-0.001 v 0 10.117 h 2.765 l -1.334,1.334 c -0.117,0.026 -0.379,0.039 -0.784,0.039 v 0 h -0.569 l -0.274,0.176 c -0.105,0.118 -0.17,0.34 -0.196,0.667 v 0 c -0.039,0.066 -0.072,0.124 -0.099,0.177 v 0 l -0.901,0.647 z m -5.177,-0.647 c 0.393,0.588 1.02,0.882 1.882,0.882 v 0 c 0.38,0 0.778,-0.17 1.196,-0.51 v 0 l -1.823,-1.803 c -0.157,0.862 -0.575,1.34 -1.255,1.431"
               style="fill:url(#linearGradient232);stroke:none"
               id="path234" />
          </g>
        </g>
      </g>
    </g>
    <g
       id="g236">
      <g
         id="g238"
         clip-path="url(#clipPath242)">
        <g
           id="g244"
           transform="translate(176.1303,325.1915)">
          <path
             d="m 0,0 c -0.157,0.863 -0.575,1.34 -1.255,1.431 0.392,0.589 1.02,0.883 1.882,0.883 0.379,0 0.778,-0.17 1.197,-0.51 z M 6.588,3.883 C 6.471,3.909 6.209,3.922 5.804,3.922 H 5.235 L 4.961,4.098 C 4.856,4.216 4.791,4.438 4.765,4.765 4.725,4.83 4.693,4.889 4.667,4.941 L 3.765,5.588 3.922,2.078 4.039,1.059 C 3.673,1.856 3.176,2.497 2.549,2.98 1.856,3.516 1.098,3.778 0.274,3.765 -1.307,3.738 -2.562,2.954 -3.49,1.412 -3.621,1.189 -3.686,0.98 -3.686,0.784 c 0,-0.261 0.114,-0.503 0.343,-0.725 0.228,-0.223 0.473,-0.308 0.735,-0.255 0.706,0.248 1.091,0.372 1.157,0.372 C -1.15,0.189 -1,-0.065 -1,-0.587 -1,-0.796 -1.039,-0.94 -1.118,-1.018 l -1.059,-1.117 1.835,-0.686 3.269,3.345 C 3.259,0.262 3.564,-0.288 3.843,-1.126 L 3.706,-6.253 c 0.06,-0.064 0.118,-0.125 0.176,-0.185 V -6.98 l -0.02,0.019 C 3.444,-6.412 2.791,-6.105 1.902,-6.039 1.784,-6.026 1.405,-6 0.764,-5.961 c -0.509,0.013 -1.012,0.026 -1.509,0.039 -0.667,0.053 -1.177,0.17 -1.53,0.353 -0.457,0.249 -0.686,0.641 -0.686,1.177 0,0.405 0.072,0.679 0.216,0.823 l -0.765,0.765 c -0.314,-0.993 -0.471,-1.713 -0.471,-2.157 0,-1.764 1.086,-2.666 3.255,-2.706 1.66,-0.026 2.831,-0.059 3.51,-0.098 C 3.255,-7.791 3.647,-7.98 3.96,-8.333 4.104,-8.569 4.261,-8.81 4.431,-9.059 l 0.726,-0.588 v 2.079 c 0,-0.001 0,-0.001 0,-0.001 V 2.549 h 2.764 z"
             style="fill:none;stroke:#1d1d1b;stroke-width:0.5;stroke-linecap:butt;stroke-linejoin:miter;stroke-miterlimit:10;stroke-dasharray:none;stroke-opacity:1"
             id="path246" />
        </g>
      </g>
    </g>
    <g
       id="g248">
      <g
         id="g250">
        <g
           id="g256">
          <g
             id="g258">
            <path
               d="m 302.316,329.337 0.098,-0.095 c -0.683,-0.162 -1.342,-0.541 -1.976,-1.143 v 0 c -1.603,-1.512 -2.405,-3.458 -2.405,-5.841 v 0 c 0,-2.26 0.748,-4.009 2.245,-5.246 v 0 c 0.504,-0.412 1.137,-0.618 1.902,-0.618 v 0 c 0.61,0 1.134,0.213 1.568,0.641 v 0 c 0.436,0.427 0.654,0.947 0.654,1.558 v 0 c 0,0.381 -0.15,0.744 -0.448,1.088 v 0 c -0.298,0.344 -0.637,0.508 -1.019,0.492 v 0 c -0.611,-0.03 -1,-0.114 -1.168,-0.252 v 0 c -0.382,-0.305 -0.573,-0.756 -0.573,-1.351 v 0 c 0.061,-0.29 0.153,-0.535 0.275,-0.733 v 0 c -0.764,0.229 -1.298,0.947 -1.603,2.153 v 0 c -0.169,0.672 -0.252,1.199 -0.252,1.581 v 0 c 0,1.909 0.595,3.474 1.786,4.696 v 0 c 0.784,0.797 1.789,1.284 3.01,1.466 v 0 h 2.946 c 0.305,-0.076 0.55,-0.252 0.733,-0.527 v 0 c -0.703,-0.275 -1.077,-0.421 -1.122,-0.435 v 0 c -0.397,-0.199 -0.71,-0.444 -0.939,-0.733 v 0 c -0.444,-0.55 -0.619,-1.053 -0.528,-1.512 v 0 c 0.169,-0.84 0.695,-1.26 1.581,-1.26 v 0 c 0.489,0 0.931,0.175 1.329,0.527 v 0 c 0.641,0.565 0.992,1.129 1.053,1.695 v 0 c 0.077,0.015 0.169,0.023 0.276,0.023 v 0 c 0.488,0 0.916,-0.134 1.282,-0.4 v 0 c 0.366,-0.269 0.55,-0.601 0.55,-0.998 v 0 c 0,-0.289 -0.107,-0.541 -0.32,-0.756 v 0 c -0.902,-0.87 -1.94,-1.305 -3.116,-1.305 v 0 c -1.207,0 -2.52,0.481 -3.94,1.443 v 0 l 1.603,-3.917 c 1.573,-0.29 3.055,-0.84 4.445,-1.649 v 0 c 1.801,-1.039 3.168,-2.07 4.1,-3.093 v 0 c 0.229,-0.244 0.626,-0.71 1.192,-1.397 v 0 l -0.734,2.634 c -1.1,1.161 -1.703,1.794 -1.81,1.901 v 0 c -0.672,0.657 -1.351,1.191 -2.038,1.604 v 0 c -0.504,0.29 -0.841,0.466 -1.008,0.527 v 0 c 0.763,0.381 1.175,0.588 1.236,0.618 v 0 c 1.223,0.672 1.834,1.634 1.834,2.886 v 0 c 0,0.215 -0.024,0.428 -0.07,0.642 v 0 c -0.29,1.298 -1.061,2.192 -2.314,2.68 v 0 c -0.397,0.168 -0.725,0.252 -0.984,0.252 v 0 c -0.123,0.184 -0.214,0.321 -0.275,0.412 v 0 l -0.046,0.138 h 6.506 l -1.581,1.604 z"
               style="fill:url(#linearGradient264);stroke:none"
               id="path266" />
          </g>
        </g>
      </g>
    </g>
    <g
       id="g268">
      <g
         id="g270"
         clip-path="url(#clipPath274)">
        <g
           id="g276"
           transform="translate(312.9914,317.9744)">
          <path
             d="m 0,0 c -0.672,0.657 -1.352,1.191 -2.039,1.604 -0.504,0.289 -0.84,0.465 -1.008,0.526 0.764,0.382 1.176,0.588 1.237,0.619 1.222,0.672 1.833,1.634 1.833,2.886 0,0.214 -0.023,0.428 -0.069,0.642 -0.29,1.298 -1.062,2.191 -2.314,2.68 -0.397,0.168 -0.725,0.252 -0.985,0.252 -0.122,0.183 -0.214,0.321 -0.274,0.412 L -3.665,9.759 H 2.84 l -1.58,1.603 h -11.935 l 0.098,-0.094 c -0.683,-0.163 -1.342,-0.542 -1.976,-1.143 -1.604,-1.512 -2.405,-3.459 -2.405,-5.841 0,-2.261 0.748,-4.009 2.245,-5.246 0.503,-0.412 1.137,-0.619 1.901,-0.619 0.61,0 1.134,0.214 1.569,0.642 0.435,0.427 0.653,0.947 0.653,1.557 0,0.382 -0.149,0.745 -0.447,1.089 -0.298,0.343 -0.638,0.507 -1.019,0.492 -0.611,-0.031 -1.001,-0.114 -1.168,-0.252 -0.382,-0.305 -0.573,-0.756 -0.573,-1.351 0.061,-0.291 0.152,-0.535 0.275,-0.733 -0.764,0.229 -1.299,0.946 -1.604,2.153 -0.168,0.672 -0.252,1.199 -0.252,1.58 0,1.909 0.596,3.475 1.787,4.697 0.784,0.798 1.789,1.284 3.009,1.466 h 2.947 C -5.33,9.682 -5.085,9.507 -4.902,9.232 -5.605,8.957 -5.979,8.812 -6.025,8.797 -6.422,8.598 -6.735,8.353 -6.964,8.063 -7.407,7.514 -7.583,7.01 -7.491,6.552 c 0.168,-0.84 0.695,-1.26 1.581,-1.26 0.488,0 0.931,0.175 1.328,0.527 0.642,0.564 0.993,1.13 1.054,1.695 0.076,0.015 0.168,0.023 0.275,0.023 0.489,0 0.916,-0.134 1.283,-0.401 0.366,-0.268 0.55,-0.6 0.55,-0.997 0,-0.29 -0.107,-0.542 -0.321,-0.756 -0.901,-0.87 -1.94,-1.305 -3.115,-1.305 -1.207,0 -2.52,0.481 -3.94,1.443 l 1.603,-3.917 c 1.573,-0.291 3.054,-0.841 4.444,-1.65 1.802,-1.039 3.169,-2.069 4.1,-3.092 0.23,-0.244 0.627,-0.711 1.192,-1.398 L 1.81,-1.901 C 0.71,-0.741 0.107,-0.107 0,0 Z"
             style="fill:none;stroke:#1d1d1b;stroke-width:0.5;stroke-linecap:butt;stroke-linejoin:miter;stroke-miterlimit:10;stroke-dasharray:none;stroke-opacity:1"
             id="path278" />
        </g>
      </g>
    </g>
    <g
       id="g280">
      <g
         id="g282">
        <g
           id="g288">
          <g
             id="g290">
            <path
               d="m 401.866,333.894 c -0.66,-0.309 -1.15,-0.613 -1.472,-0.915 v 0 c -0.323,-0.302 -0.681,-0.767 -1.073,-1.398 v 0 c -0.14,-0.24 -0.218,-0.569 -0.231,-0.989 v 0 c 0,-0.252 0.087,-0.481 0.263,-0.684 v 0 c 0.174,-0.204 0.353,-0.396 0.536,-0.578 v 0 h -2.735 l 1.462,-1.473 h 1.42 v -9.508 l 1.494,-1.43 v 10.938 h 2.944 l -0.02,0.021 h 6.289 v -1.767 c -0.056,0.07 -0.113,0.134 -0.168,0.189 v 0 c -0.112,0.141 -0.231,0.295 -0.357,0.463 v 0 c -0.294,0.266 -0.664,0.414 -1.111,0.442 v 0 c -0.239,0.013 -0.497,-0.088 -0.777,-0.305 v 0 c -0.28,-0.218 -0.482,-0.452 -0.608,-0.705 v 0 l -0.147,0.19 c -0.601,0.602 -1.301,0.897 -2.098,0.883 v 0 c -0.755,-0.015 -1.371,-0.357 -1.846,-1.031 v 0 c -0.419,-0.603 -0.629,-1.297 -0.629,-2.082 v 0 c 0,-0.954 0.287,-1.725 0.862,-2.314 v 0 c 0.575,-0.589 1.347,-0.884 2.314,-0.884 v 0 c 0.869,0 1.458,0.379 1.767,1.136 v 0 c 0.112,0.253 0.056,0.66 -0.169,1.22 v 0 c -0.266,0.701 -0.701,1.045 -1.304,1.031 v 0 c -0.392,0 -0.725,-0.126 -0.999,-0.378 v 0 c -0.273,-0.253 -0.41,-0.575 -0.41,-0.968 v 0 c 0,-0.168 0.028,-0.33 0.085,-0.484 v 0 c -0.492,0.196 -0.737,0.581 -0.737,1.157 v 0 c 0,0.449 0.171,0.831 0.515,1.146 v 0 c 0.344,0.316 0.74,0.474 1.189,0.474 v 0 c 0.561,0 1.01,-0.176 1.346,-0.526 v 0 c 0.098,-0.07 0.288,-0.316 0.568,-0.736 v 0 c 0.126,-0.211 0.126,-0.463 0,-0.758 v 0 l 1.052,0.4 c -0.099,0.659 -0.099,1.094 0,1.305 v 0 c 0.114,0.209 0.284,0.315 0.511,0.315 v 0 c 0.27,0 0.529,-0.126 0.777,-0.379 v 0 c 0.249,-0.252 0.374,-0.512 0.374,-0.778 v 0 -5.911 l 1.493,-1.43 v 11.085 h 2.903 l -1.514,1.472 h -12.411 l 0.021,-0.02 h -0.127 l -0.357,0.757 c -0.014,0.126 0.133,0.399 0.442,0.821 v 0 c 0.266,0.364 0.498,0.644 0.694,0.841 v 0 c 0.869,0.574 1.668,0.862 2.398,0.862 v 0 c 1.332,0 2.517,-0.393 3.555,-1.178 v 0 l 2.335,-1.767 -0.463,1.367 c -0.813,0.828 -1.466,1.395 -1.956,1.704 v 0 c -1.571,0.968 -3.05,1.452 -4.439,1.452 v 0 c -0.561,0 -1.044,-0.098 -1.451,-0.295"
               style="fill:url(#linearGradient296);stroke:none"
               id="path298" />
          </g>
        </g>
      </g>
    </g>
    <g
       id="g300">
      <g
         id="g302"
         clip-path="url(#clipPath306)">
        <g
           id="g308"
           transform="translate(413.6244,329.3505)">
          <path
             d="m 0,0 h -12.411 l 0.022,-0.021 h -0.127 l -0.357,0.757 c -0.014,0.126 0.133,0.4 0.442,0.821 0.266,0.364 0.497,0.645 0.694,0.841 0.869,0.575 1.668,0.862 2.398,0.862 1.332,0 2.517,-0.392 3.555,-1.177 l 2.335,-1.767 -0.463,1.367 c -0.814,0.827 -1.466,1.395 -1.956,1.704 -1.571,0.967 -3.051,1.451 -4.439,1.451 -0.561,0 -1.045,-0.098 -1.451,-0.294 -0.66,-0.309 -1.15,-0.614 -1.473,-0.915 -0.323,-0.302 -0.68,-0.768 -1.073,-1.399 -0.14,-0.239 -0.217,-0.568 -0.231,-0.989 0,-0.252 0.087,-0.48 0.263,-0.683 0.175,-0.204 0.354,-0.397 0.536,-0.579 h -2.734 l 1.462,-1.472 h 1.42 v -9.508 l 1.493,-1.431 v 10.939 h 2.945 l -0.021,0.021 h 6.289 v -1.767 c -0.056,0.07 -0.112,0.133 -0.168,0.189 -0.111,0.14 -0.23,0.294 -0.356,0.463 -0.294,0.266 -0.665,0.413 -1.112,0.441 -0.238,0.014 -0.497,-0.087 -0.777,-0.305 -0.279,-0.217 -0.482,-0.452 -0.608,-0.704 l -0.147,0.189 c -0.601,0.603 -1.3,0.897 -2.097,0.884 -0.755,-0.015 -1.371,-0.358 -1.846,-1.031 -0.42,-0.603 -0.63,-1.297 -0.63,-2.083 0,-0.953 0.288,-1.725 0.863,-2.314 0.575,-0.589 1.346,-0.883 2.314,-0.883 0.869,0 1.458,0.379 1.767,1.136 0.112,0.252 0.055,0.659 -0.169,1.22 -0.266,0.701 -0.701,1.044 -1.304,1.031 -0.393,0 -0.726,-0.127 -0.999,-0.379 -0.273,-0.252 -0.41,-0.575 -0.41,-0.968 0,-0.168 0.028,-0.329 0.084,-0.483 -0.491,0.196 -0.736,0.581 -0.736,1.157 0,0.448 0.171,0.831 0.515,1.146 0.344,0.316 0.74,0.473 1.188,0.473 0.561,0 1.01,-0.175 1.347,-0.526 0.098,-0.07 0.287,-0.315 0.568,-0.736 0.126,-0.21 0.126,-0.463 0,-0.757 l 1.051,0.4 c -0.098,0.658 -0.098,1.093 0,1.304 0.114,0.21 0.284,0.315 0.512,0.315 0.269,0 0.529,-0.126 0.777,-0.378 0.249,-0.253 0.373,-0.512 0.373,-0.779 v -5.911 l 1.494,-1.43 v 11.086 h 2.903 z"
             style="fill:none;stroke:#1d1d1b;stroke-width:0.5;stroke-linecap:butt;stroke-linejoin:miter;stroke-miterlimit:10;stroke-dasharray:none;stroke-opacity:1"
             id="path310" />
        </g>
      </g>
    </g>
    <g
       id="g312">
      <g
         id="g314">
        <g
           id="g320">
          <g
             id="g322">
            <path
               d="m 499.016,328.15 c -0.371,0.654 -0.897,1.031 -1.58,1.131 v 0 h -10e-4 c -0.413,0.06 -0.986,0.059 -1.714,0 v 0 h -12.183 l 1.508,-1.494 h 6.37 v -0.47 c -2.233,-0.725 -4.254,-1.836 -6.063,-3.33 v 0 l 1.665,-2.027 c 0.925,-0.115 1.794,-0.421 2.604,-0.918 v 0 c 0.37,-0.228 0.783,-0.612 1.239,-1.153 v 0 c 0.37,-0.442 0.626,-0.819 0.768,-1.131 v 0 c 0.085,-0.158 0.242,-0.577 0.47,-1.261 v 0 l 0.79,-0.789 v 8.838 c 0.768,0.014 1.444,-0.271 2.027,-0.854 v 0 c 0.431,-0.43 0.678,-0.891 0.747,-1.381 v 0 c -0.284,0.193 -0.576,0.292 -0.875,0.292 v 0 c -0.213,0 -0.455,-0.042 -0.726,-0.128 v 0 c -0.469,-0.384 -0.704,-0.812 -0.704,-1.28 v 0 c 0,-0.414 0.163,-0.769 0.491,-1.068 v 0 c 0.327,-0.3 0.697,-0.449 1.111,-0.449 v 0 c 0.583,0 1.06,0.242 1.43,0.726 v 0 c 0.341,0.441 0.513,0.961 0.513,1.558 v 0 c 0,0.285 -0.037,0.599 -0.108,0.94 v 0 c -0.201,0.896 -0.666,1.701 -1.395,2.412 v 0 c -0.788,0.754 -1.624,1.131 -2.511,1.131 v 0 0.342 h 3.863 0.342 c 0.612,0 1.124,-0.299 1.538,-0.894 v 0 c 0.17,-0.243 0.255,-0.576 0.255,-1.002 v 0 -8.076 l 1.452,-1.577 v 11.549 h 2.967 l -1.479,1.494 h -1.586 c -0.099,0.129 -0.177,0.235 -0.233,0.321 v 0 c -0.127,0.313 -0.225,0.697 -0.297,1.152 v 0 l -0.824,0.684 c 0,-1.196 0.043,-2.292 0.129,-3.288 m -10.781,-4.525 c 0.541,0.384 0.889,0.632 1.045,0.747 v 0 c 0.513,0.326 1.224,0.668 2.136,1.025 v 0 -4.505 c -0.769,1.181 -1.83,2.092 -3.181,2.733"
               style="fill:url(#linearGradient328);stroke:none"
               id="path330" />
          </g>
        </g>
      </g>
    </g>
    <g
       id="g332">
      <g
         id="g334"
         clip-path="url(#clipPath338)">
        <g
           id="g340"
           transform="translate(491.4158,320.8919)">
          <path
             d="M 0,0 C -0.769,1.181 -1.829,2.092 -3.181,2.733 -2.64,3.117 -2.292,3.366 -2.135,3.48 -1.622,3.807 -0.911,4.148 0,4.504 Z M 10.411,8.39 H 8.825 C 8.726,8.518 8.648,8.624 8.592,8.71 8.465,9.023 8.366,9.407 8.296,9.863 L 7.471,10.546 C 7.471,9.35 7.514,8.254 7.6,7.258 7.229,7.913 6.703,8.29 6.02,8.39 v 0 0 C 5.606,8.449 5.033,8.448 4.305,8.39 H -7.877 L -6.37,6.895 H 0 V 6.426 C -2.233,5.7 -4.254,4.59 -6.063,3.095 l 1.665,-2.028 c 0.925,-0.114 1.793,-0.42 2.605,-0.918 0.37,-0.227 0.782,-0.612 1.238,-1.152 0.37,-0.442 0.626,-0.819 0.768,-1.132 0.086,-0.157 0.242,-0.576 0.47,-1.259 l 0.79,-0.79 V 4.654 C 2.242,4.668 2.917,4.383 3.501,3.8 3.931,3.37 4.178,2.909 4.247,2.418 3.963,2.613 3.672,2.711 3.373,2.711 3.159,2.711 2.917,2.668 2.647,2.583 2.178,2.199 1.942,1.772 1.942,1.302 c 0,-0.413 0.164,-0.768 0.491,-1.067 0.328,-0.299 0.697,-0.448 1.11,-0.448 0.584,0 1.061,0.241 1.431,0.725 C 5.315,0.953 5.486,1.473 5.486,2.071 5.486,2.355 5.45,2.668 5.379,3.01 5.178,3.907 4.713,4.711 3.984,5.422 3.197,6.177 2.36,6.554 1.473,6.554 V 6.895 H 5.337 5.678 C 6.29,6.895 6.802,6.597 7.215,6 7.386,5.759 7.471,5.425 7.471,4.999 V -3.077 L 8.923,-4.654 V 6.895 h 2.967 z"
             style="fill:none;stroke:#1d1d1b;stroke-width:0.5;stroke-linecap:butt;stroke-linejoin:miter;stroke-miterlimit:10;stroke-dasharray:none;stroke-opacity:1"
             id="path342" />
        </g>
        <g
           id="g344"
           transform="translate(219.1151,308.6857)">
          <path
             d="m 0,0 c 0,0 -3.104,2.381 -10.582,3.497 0,0 -3.033,-0.651 0,-1.488 0,0 8.801,-1.73 13.933,-5.971"
             style="fill:#ffffff;fill-opacity:1;fill-rule:nonzero;stroke:none"
             id="path346" />
        </g>
        <g
           id="g348"
           transform="translate(206.5405,309.8576)">
          <path
             d="M 0,0 C 0,0 9.894,-1.786 17.619,-7.478"
             style="fill:#ffffff;fill-opacity:1;fill-rule:nonzero;stroke:none"
             id="path350" />
        </g>
        <g
           id="g352"
           transform="translate(205.2178,308.1276)">
          <path
             d="M 0,0 C 0,0 12.328,-1.786 19.629,-7.701"
             style="fill:#ffffff;fill-opacity:1;fill-rule:nonzero;stroke:none"
             id="path354" />
        </g>
        <g
           id="g356"
           transform="translate(204.9532,306.4535)">
          <path
             d="M 0,0 C 0,0 15.079,-2.846 21.375,-8.929"
             style="fill:#ffffff;fill-opacity:1;fill-rule:nonzero;stroke:none"
             id="path358" />
        </g>
        <g
           id="g360"
           transform="translate(204.4241,304.277)">
          <path
             d="M 0,0 C 0,0 10.74,-0.67 22.169,-8.985"
             style="fill:#ffffff;fill-opacity:1;fill-rule:nonzero;stroke:none"
             id="path362" />
        </g>
        <g
           id="g364"
           transform="translate(203.7892,301.7099)">
          <path
             d="m 0,0 c 0,0 12.222,-0.781 23.439,-8.203 l -3.969,1.45 5.133,-4.464 -9.841,4.185 9.311,-5.524 c 0,0 1.217,-1.842 -0.476,-1.116 0,0 -11.534,6.417 -24.92,7.924 l 4.074,-0.056 -4.444,2.065 7.46,-1.06 -7.037,2.511 7.989,-0.893 -6.084,1.897 c 0,0 4.391,0.503 -0.635,1.284"
             style="fill:#ffffff;fill-opacity:1;fill-rule:nonzero;stroke:none"
             id="path366" />
        </g>
        <g
           id="g368"
           transform="translate(201.4613,294.4551)">
          <path
             d="m 0,0 c 0,0 2.804,-1.563 -0.37,-1.172 0,0 22.909,-6.808 26.613,-8.371 0,0 3.796,-0.839 -2.275,2.956 0,0 -9.206,4.466 -23.968,6.587"
             style="fill:#ffffff;fill-opacity:1;fill-rule:nonzero;stroke:none"
             id="path370" />
        </g>
        <g
           id="g372"
           transform="translate(200.2973,289.2094)">
          <path
             d="m 0,0 c 0,0 1.217,0.837 0,1.507 0,0 19.629,-2.512 28.359,-7.59 0,0 1.958,-2.12 -3.28,-0.391 0,0 -23.492,5.972 -25.079,6.474"
             style="fill:#ffffff;fill-opacity:1;fill-rule:nonzero;stroke:none"
             id="path374" />
        </g>
        <g
           id="g376"
           transform="translate(199.3449,285.5262)">
          <path
             d="m 0,0 v 1.395 c 0,0 23.439,-3.404 28.729,-6.808 0,0 1.746,-2.121 -4.179,-0.726 0,0 -22.91,4.967 -24.55,6.139"
             style="fill:#ffffff;fill-opacity:1;fill-rule:nonzero;stroke:none"
             id="path378" />
        </g>
        <g
           id="g380"
           transform="translate(198.9745,281.5639)">
          <path
             d="m 0,0 c 0,0 -1.799,1.143 0.741,1.353 0,0 25.396,-4.813 27.671,-5.315 0,0 2.751,-1.898 -4.921,-1.284 0,0 -19.576,3.237 -23.491,5.246"
             style="fill:#ffffff;fill-opacity:1;fill-rule:nonzero;stroke:none"
             id="path382" />
        </g>
        <g
           id="g384"
           transform="translate(198.3564,277.9924)">
          <path
             d="m 0,0 c 0,0 -1.974,1.395 1.941,0.391 0,0 18.677,-3.107 26.296,-3.777 0,0 0.423,-1.562 -5.503,-1.116 0,0 -16.686,1.712 -22.734,4.502"
             style="fill:#ffffff;fill-opacity:1;fill-rule:nonzero;stroke:none"
             id="path386" />
        </g>
        <g
           id="g388"
           transform="translate(199.0804,274.2534)">
          <path
             d="m 0,0 c 0,0 7.778,-4.464 25.819,-3.348 0,0 0.741,0.167 0.794,0.948 0,0 -22.804,2.233 -24.338,2.4 0,0 -3.831,0.703 -2.275,0"
             style="fill:#ffffff;fill-opacity:1;fill-rule:nonzero;stroke:none"
             id="path390" />
        </g>
        <g
           id="g392"
           transform="translate(199.874,270.2911)">
          <path
             d="m 0,0 c 0,0 -3.069,0.837 2.222,0.614 0,0 13.704,-2.344 21.375,-1.842 0,0 2.275,-0.335 -1.322,-0.893 0,0 -12.91,-1.451 -22.275,2.121"
             style="fill:#ffffff;fill-opacity:1;fill-rule:nonzero;stroke:none"
             id="path394" />
        </g>
        <g
           id="g396"
           transform="translate(200.5618,267.8789)">
          <path
             d="m 0,0 c 0,0 11.322,-2.331 19.788,-1.327 0,0 4.92,-0.056 -0.794,-1.004 0,0 -12.698,-1.129 -18.465,1.165 0,0 -2.698,0.93 -0.529,1.166"
             style="fill:#ffffff;fill-opacity:1;fill-rule:nonzero;stroke:none"
             id="path398" />
        </g>
        <g
           id="g400"
           transform="translate(202.6782,264.5431)">
          <path
             d="m 0,0 c 0,0 11.64,-1.339 16.296,-0.558 0,0 1.958,-0.614 -1.64,-0.726 0,0 -5.714,-1.283 -13.333,0 C 1.323,-1.284 -3.704,0 0,0"
             style="fill:#ffffff;fill-opacity:1;fill-rule:nonzero;stroke:none"
             id="path402" />
        </g>
      </g>
    </g>
  </g>
</svg>
